<svg width="161" height="175" viewBox="0 0 161 175" fill="none" xmlns="http://www.w3.org/2000/svg">
<path d="M26.1875 63.7812C44.7812 63.7812 54.0781 53.4062 54.0781 32.6562C54.0781 14.3437 44.7812 5.1875 26.1875 5.1875H7.67188V63.7812H26.1875ZM2.75 68V0.96875H26.6562C48.5312 0.96875 59.4688 11.5312 59.4688 32.6562C59.4688 56.2188 48.375 68 26.1875 68H2.75ZM78.9219 0.96875V68H74V0.96875H78.9219ZM157.109 0.96875L127.719 68H119.984L90.4531 0.96875H95.8438L124.016 64.2031L151.859 0.96875H157.109ZM44.6094 107.969V112.188H5.51562V138.906H43.0156V143.125H5.51562V170.781H45.2656V175H0.59375V107.969H44.6094ZM59.0938 175V107.969H86.75C98.875 107.969 104.938 113.328 104.938 124.047C104.938 133.328 98.3594 139.906 85.2031 143.781L107.844 175H101.094L78.8281 143.922V140.594C92.5781 138.562 99.4531 133.172 99.4531 124.422C99.4531 116.359 94.9531 112.328 85.9531 112.328H64.0156V175H59.0938ZM160.391 107.969V112.188H137.422V175H132.5V112.188H110V107.969H160.391Z" fill="white"/>
<path d="M7.67188 5.1875V0.1875H2.67188V5.1875H7.67188ZM7.67188 63.7812H2.67188V68.7812H7.67188V63.7812ZM2.75 68H-2.25V73H2.75V68ZM2.75 0.96875V-4.03125H-2.25V0.96875H2.75ZM26.1875 68.7812C36.4056 68.7812 44.9432 65.9053 50.8292 59.3368C56.6216 52.8726 59.0781 43.6749 59.0781 32.6562H49.0781C49.0781 42.3876 46.8862 48.7524 43.3818 52.6632C39.9708 56.4697 34.5632 58.7812 26.1875 58.7812V68.7812ZM59.0781 32.6562C59.0781 22.7098 56.5473 14.3359 50.614 8.49231C44.6947 2.66255 36.2361 0.1875 26.1875 0.1875V10.1875C34.7327 10.1875 40.2194 12.2906 43.597 15.6171C46.9605 18.9297 49.0781 24.2902 49.0781 32.6562H59.0781ZM26.1875 0.1875H7.67188V10.1875H26.1875V0.1875ZM2.67188 5.1875V63.7812H12.6719V5.1875H2.67188ZM7.67188 68.7812H26.1875V58.7812H7.67188V68.7812ZM7.75 68V0.96875H-2.25V68H7.75ZM2.75 5.96875H26.6562V-4.03125H2.75V5.96875ZM26.6562 5.96875C36.8659 5.96875 43.5969 8.43578 47.7923 12.4873C51.9552 16.5074 54.4688 22.9097 54.4688 32.6562H64.4688C64.4688 21.2778 61.5136 11.8363 54.739 5.29397C47.9968 -1.21703 38.3216 -4.03125 26.6562 -4.03125V5.96875ZM54.4688 32.6562C54.4688 43.7392 51.854 51.1213 47.5083 55.7363C43.2158 60.2949 36.4311 63 26.1875 63V73C38.1314 73 47.9874 69.8145 54.7886 62.5918C61.5367 55.4255 64.4688 45.1358 64.4688 32.6562H54.4688ZM26.1875 63H2.75V73H26.1875V63ZM78.9219 0.96875H83.9219V-4.03125H78.9219V0.96875ZM78.9219 68V73H83.9219V68H78.9219ZM74 68H69V73H74V68ZM74 0.96875V-4.03125H69V0.96875H74ZM73.9219 0.96875V68H83.9219V0.96875H73.9219ZM78.9219 63H74V73H78.9219V63ZM79 68V0.96875H69V68H79ZM74 5.96875H78.9219V-4.03125H74V5.96875ZM157.109 0.96875L161.689 2.97654L164.761 -4.03125H157.109V0.96875ZM127.719 68V73H130.986L132.298 70.0078L127.719 68ZM119.984 68L115.409 70.0158L116.723 73H119.984V68ZM90.4531 0.96875V-4.03125H82.7866L85.8775 2.98459L90.4531 0.96875ZM95.8438 0.96875L100.411 -1.06603L99.0899 -4.03125H95.8438V0.96875ZM124.016 64.2031L119.448 66.2379L124.042 76.5496L128.592 66.2181L124.016 64.2031ZM151.859 0.96875V-4.03125H148.598L147.283 -1.04619L151.859 0.96875ZM152.53 -1.03904L123.14 65.9922L132.298 70.0078L161.689 2.97654L152.53 -1.03904ZM127.719 63H119.984V73H127.719V63ZM124.56 65.9842L95.0288 -1.04709L85.8775 2.98459L115.409 70.0158L124.56 65.9842ZM90.4531 5.96875H95.8438V-4.03125H90.4531V5.96875ZM91.2765 3.00353L119.448 66.2379L128.583 62.1684L100.411 -1.06603L91.2765 3.00353ZM128.592 66.2181L156.435 2.98369L147.283 -1.04619L119.44 62.1882L128.592 66.2181ZM151.859 5.96875H157.109V-4.03125H151.859V5.96875ZM44.6094 107.969H49.6094V102.969H44.6094V107.969ZM44.6094 112.188V117.188H49.6094V112.188H44.6094ZM5.51562 112.188V107.188H0.515625V112.188H5.51562ZM5.51562 138.906H0.515625V143.906H5.51562V138.906ZM43.0156 138.906H48.0156V133.906H43.0156V138.906ZM43.0156 143.125V148.125H48.0156V143.125H43.0156ZM5.51562 143.125V138.125H0.515625V143.125H5.51562ZM5.51562 170.781H0.515625V175.781H5.51562V170.781ZM45.2656 170.781H50.2656V165.781H45.2656V170.781ZM45.2656 175V180H50.2656V175H45.2656ZM0.59375 175H-4.40625V180H0.59375V175ZM0.59375 107.969V102.969H-4.40625V107.969H0.59375ZM39.6094 107.969V112.188H49.6094V107.969H39.6094ZM44.6094 107.188H5.51562V117.188H44.6094V107.188ZM0.515625 112.188V138.906H10.5156V112.188H0.515625ZM5.51562 143.906H43.0156V133.906H5.51562V143.906ZM38.0156 138.906V143.125H48.0156V138.906H38.0156ZM43.0156 138.125H5.51562V148.125H43.0156V138.125ZM0.515625 143.125V170.781H10.5156V143.125H0.515625ZM5.51562 175.781H45.2656V165.781H5.51562V175.781ZM40.2656 170.781V175H50.2656V170.781H40.2656ZM45.2656 170H0.59375V180H45.2656V170ZM5.59375 175V107.969H-4.40625V175H5.59375ZM0.59375 112.969H44.6094V102.969H0.59375V112.969ZM59.0938 175H54.0938V180H59.0938V175ZM59.0938 107.969V102.969H54.0938V107.969H59.0938ZM85.2031 143.781L83.7904 138.985L76.999 140.985L81.1555 146.717L85.2031 143.781ZM107.844 175V180H117.646L111.891 172.065L107.844 175ZM101.094 175L97.0292 177.912L98.5252 180H101.094V175ZM78.8281 143.922H73.8281V145.528L74.7636 146.834L78.8281 143.922ZM78.8281 140.594L78.0974 135.647L73.8281 136.278V140.594H78.8281ZM64.0156 112.328V107.328H59.0156V112.328H64.0156ZM64.0156 175V180H69.0156V175H64.0156ZM64.0938 175V107.969H54.0938V175H64.0938ZM59.0938 112.969H86.75V102.969H59.0938V112.969ZM86.75 112.969C92.1831 112.969 95.3239 114.183 97.079 115.734C98.7165 117.182 99.9375 119.629 99.9375 124.047H109.938C109.938 117.746 108.127 112.154 103.702 108.242C99.3948 104.434 93.4419 102.969 86.75 102.969V112.969ZM99.9375 124.047C99.9375 127.358 98.8222 130.052 96.4684 132.406C93.985 134.889 89.9194 137.18 83.7904 138.985L86.6158 148.578C93.6431 146.508 99.4447 143.572 103.539 139.477C107.764 135.253 109.938 130.017 109.938 124.047H99.9375ZM81.1555 146.717L103.796 177.935L111.891 172.065L89.2507 140.846L81.1555 146.717ZM107.844 170H101.094V180H107.844V170ZM105.158 172.088L82.8926 141.01L74.7636 146.834L97.0292 177.912L105.158 172.088ZM83.8281 143.922V140.594H73.8281V143.922H83.8281ZM79.5588 145.54C86.8345 144.465 92.9707 142.421 97.382 138.962C102.031 135.317 104.453 130.33 104.453 124.422H94.4531C94.4531 127.264 93.4382 129.347 91.2117 131.093C88.7481 133.024 84.5718 134.691 78.0974 135.647L79.5588 145.54ZM104.453 124.422C104.453 119.469 103.046 114.88 99.4144 111.627C95.8877 108.468 91.0965 107.328 85.9531 107.328V117.328C89.8098 117.328 91.7685 118.204 92.7419 119.076C93.6106 119.854 94.4531 121.312 94.4531 124.422H104.453ZM85.9531 107.328H64.0156V117.328H85.9531V107.328ZM59.0156 112.328V175H69.0156V112.328H59.0156ZM64.0156 170H59.0938V180H64.0156V170ZM160.391 107.969H165.391V102.969H160.391V107.969ZM160.391 112.188V117.188H165.391V112.188H160.391ZM137.422 112.188V107.188H132.422V112.188H137.422ZM137.422 175V180H142.422V175H137.422ZM132.5 175H127.5V180H132.5V175ZM132.5 112.188H137.5V107.188H132.5V112.188ZM110 112.188H105V117.188H110V112.188ZM110 107.969V102.969H105V107.969H110ZM155.391 107.969V112.188H165.391V107.969H155.391ZM160.391 107.188H137.422V117.188H160.391V107.188ZM132.422 112.188V175H142.422V112.188H132.422ZM137.422 170H132.5V180H137.422V170ZM137.5 175V112.188H127.5V175H137.5ZM132.5 107.188H110V117.188H132.5V107.188ZM115 112.188V107.969H105V112.188H115ZM110 112.969H160.391V102.969H110V112.969Z" fill="white"/>
</svg>
